<svg width="20" height="20" viewBox="0 0 20 20" fill="none" xmlns="http://www.w3.org/2000/svg">
<g id="Frame">
<path id="Vector" d="M0.113915 16.5551H19.7792V3.47748H0.113915V16.5551ZM0.0325928 16.6365V3.37988H19.8605V16.6202H0.0325928V16.6365Z" fill="#353636"/>
<path id="Vector_2" d="M0.0812988 12.1958H19.8279V16.5875H0.0812988V12.1958Z" fill="#00853E"/>
<path id="Vector_3" d="M0.0812988 7.82031H19.8279V12.2121H0.0812988V7.82031Z" fill="#BE1724"/>
<path id="Vector_4" d="M0.0812988 3.42871H19.8279V7.82045H0.0812988V3.42871Z" fill="#231815"/>
<path id="Vector_5" d="M0.0812988 7.479H19.8279V8.12963H0.0812988V7.479ZM0.0812988 11.8708H19.8279V12.5214H0.0812988V11.8708Z" fill="white"/>
<path id="Vector_6" d="M11.7764 7.49495C12.0204 7.42989 12.1668 7.20217 12.2969 6.97445C12.3945 6.82806 12.915 5.42921 12.915 5.42921C12.915 5.42921 11.9065 6.56781 11.8252 6.7142C11.6951 6.94191 11.5487 7.16964 11.6137 7.41362L9.95463 10.1788L8.29552 7.41362C8.36059 7.16963 8.23045 6.9419 8.08406 6.71419C7.98646 6.5678 6.99426 5.4292 6.99426 5.4292C6.99426 5.4292 7.51477 6.82805 7.61236 6.97444C7.74249 7.20216 7.88887 7.42987 8.13286 7.49494L9.85704 10.3414L7.31958 14.5055L7.48223 14.5868L9.93836 10.5204L12.4108 14.6031L12.5734 14.5217L10.0522 10.3414L11.7764 7.49494V7.49495Z" fill="white"/>
<path id="Vector_7" d="M11.7764 7.4951C12.0367 7.44629 12.1668 7.20231 12.3132 6.97459C12.4108 6.81193 12.9313 5.42935 12.9313 5.42935L12.915 5.41309C12.915 5.41309 11.9066 6.55169 11.8252 6.69808C11.7114 6.89327 11.5975 7.07219 11.5975 7.26737L11.6138 7.39751H11.63L9.9384 10.1464L8.2793 7.39751H8.29556L8.31183 7.26737C8.31183 7.07219 8.19798 6.877 8.08411 6.69808C7.9865 6.55169 6.99431 5.41309 6.99431 5.41309L6.97804 5.42935C6.97804 5.42935 7.49855 6.8282 7.59614 6.97459C7.72627 7.20231 7.87266 7.43003 8.13291 7.4951V7.47883L9.84081 10.3253L7.30335 14.5056L7.46601 14.6032L9.92214 10.5205L12.3783 14.6032L12.5409 14.5056L10.0685 10.3416L11.7764 7.4951L10.036 10.3416L12.5572 14.5056L12.4108 14.587L9.9384 10.488L7.48228 14.587L7.33589 14.5056L9.85708 10.3416L8.13291 7.47883C7.88892 7.41376 7.75878 7.18605 7.61239 6.95832C7.51479 6.81193 6.99431 5.41309 6.99431 5.41309H6.97803C6.97803 5.41309 7.9865 6.55169 8.06783 6.69808C8.18171 6.877 8.29556 7.07219 8.29556 7.26737L8.2793 7.39751L9.95467 10.1789L11.63 7.39751L11.5975 7.26737C11.5975 7.07219 11.7114 6.89327 11.8252 6.69808C11.9228 6.55169 12.915 5.41309 12.915 5.41309C12.915 5.41309 12.3945 6.81193 12.2969 6.95832C12.1505 7.18605 12.0204 7.41377 11.7764 7.4951Z" fill="#231815"/>
<path id="Vector_8" d="M11.6951 7.90167C11.4186 7.20224 10.5077 5.78711 9.95467 5.78711C9.40163 5.78711 8.49076 7.18597 8.21423 7.90167C8.49076 8.60108 8.66968 9.30051 8.66968 10.0162C8.66968 10.7156 8.49076 11.4151 8.21423 12.1308C8.49077 12.8302 9.40163 14.2453 9.95467 14.2453C10.5077 14.2453 11.4186 12.8465 11.6951 12.1308C11.4186 11.4313 11.2397 10.7319 11.2397 10.0162C11.2234 9.30053 11.4186 8.60108 11.6951 7.90167Z" fill="#BE1724"/>
<path id="Vector_9" d="M11.6951 7.90186C11.1421 9.33324 11.1421 10.6833 11.6951 12.1147C12.2481 10.6833 12.2481 9.33324 11.6951 7.90186ZM8.19798 7.90186C7.64494 9.33324 7.64494 10.6833 8.19798 12.1147C8.76728 10.6833 8.76728 9.33324 8.19798 7.90186Z" fill="#231815"/>
<path id="Vector_10" d="M9.93837 9.47949C10.4263 9.47949 10.4263 10.5368 9.93837 10.5368C9.45039 10.5368 9.45039 9.47949 9.93837 9.47949Z" fill="white"/>
<path id="Vector_11" d="M10.036 10.5203C10.5565 11.6101 10.5565 13.1228 10.036 14.2126V10.5203ZM9.85705 9.49555C9.33655 8.40575 9.33655 6.89303 9.85705 5.80322V9.49555ZM9.85705 10.5203C9.33655 11.6101 9.33655 13.1228 9.85705 14.2126V10.5203ZM10.036 9.49555C10.5565 8.40575 10.5565 6.89303 10.036 5.80322V9.49555Z" fill="white"/>
</g>
</svg>
