<svg width="20" height="20" viewBox="0 0 20 20" fill="none" xmlns="http://www.w3.org/2000/svg">
<path d="M0 16.7273V4H19.0909V16.7273H0ZM0.0790909 16.6482H19.0118V4.07818H0.0790909V16.6482Z" fill="#231F20"/>
<path d="M0 4H20V10.3636H0V4Z" fill="#0038A8"/>
<path d="M0 10.3636H20V16.7273H0V10.3636Z" fill="#CE1126"/>
<path d="M0 16.7273V4L9.09091 10.3636L0 16.7273Z" fill="white"/>
<path d="M1.17636 15.6364L0.726364 15.4364L0.405454 15.8182L0.453636 15.3164L0 15.1218L0.479091 15.0109L0.520909 14.5091L0.77 14.9445L1.24818 14.8282L0.922727 15.2064L1.17636 15.6373V15.6364ZM4.88091 10.6545L5.09 10.4282L4.80818 10.2055L4.18182 10.2836C3.97273 10.3091 3.98909 10.2182 4.18364 10.1836L4.73182 10.0836C4.60182 9.97818 4.59364 9.94455 4.44091 9.98636C4.26545 10.0355 4.03 10.1918 3.96455 10C3.92273 9.87364 3.82455 9.82091 3.94636 9.75182L4.23091 9.59273C4.40727 9.49273 4.40636 9.49091 4.43455 9.28364L4.01636 9.57091L3.82909 9.69818C3.72727 9.76727 3.82454 9.58546 3.84545 9.56818L4.36909 9.15182C4.49 9.05546 4.44545 8.93364 4.44364 8.77909L4.09091 8.81818L3.69273 9.32091C3.56 9.49 3.51 9.41182 3.62545 9.24818L3.95273 8.78455C3.78909 8.80273 3.75909 8.78455 3.67818 8.92455C3.62091 9.01909 3.56545 9.11546 3.51091 9.21C3.43818 9.33545 3.47727 9.34 3.33273 9.26455C3.21455 9.20546 3.07909 9.24091 3.11727 9.09364C3.14455 8.98546 3.17364 8.87909 3.20182 8.77273C3.25364 8.57273 3.25182 8.57273 3.12636 8.40727L3.03636 8.91636L2.99636 9.14455C2.97545 9.26455 2.91455 9.06636 2.91818 9.03909L2.98818 8.36455C3.00545 8.20818 2.88818 8.15546 2.77909 8.04909L2.56182 8.34L2.63818 8.98273C2.66364 9.19727 2.57636 9.18 2.54091 8.98091L2.44273 8.41727C2.34 8.55 2.30909 8.55909 2.34909 8.71727L2.43364 9.04C2.47091 9.17909 2.50182 9.15455 2.35182 9.20818C2.22727 9.25364 2.16455 9.37182 2.09273 9.24182L1.92909 8.95364C1.82636 8.77546 1.82545 8.77636 1.62364 8.75364L1.91273 9.17636L2.04273 9.36546C2.11182 9.46546 1.93182 9.37091 1.91545 9.34909C1.77455 9.17546 1.63545 8.99818 1.49636 8.82364C1.39909 8.70182 1.28182 8.75091 1.13091 8.75546L1.18091 9.11909C1.34636 9.25 1.51182 9.38273 1.67909 9.51273C1.84636 9.64364 1.77273 9.69818 1.60909 9.58364L1.15091 9.26091C1.17182 9.42909 1.15455 9.45909 1.29273 9.54C1.45636 9.63364 1.72455 9.68636 1.63818 9.87727C1.58273 10 1.61909 10.1227 1.47909 10.0845L1.16545 10C0.970909 9.94546 0.970909 9.94818 0.810909 10.0782L1.30727 10.1673L1.53 10.2082C1.64818 10.23 1.45545 10.2918 1.42818 10.2891L0.771818 10.2209C0.618182 10.2055 0.569091 10.3245 0.465455 10.4391L0.75 10.66C0.958182 10.6309 1.16636 10.6036 1.37545 10.5764C1.58455 10.5491 1.56909 10.6391 1.37455 10.6773L0.828182 10.7827C0.957273 10.8855 0.966364 10.9191 1.11909 10.8755C1.29909 10.8245 1.52818 10.6673 1.59545 10.8627C1.64 10.9882 1.74273 11.0445 1.62091 11.1164L1.33909 11.2809C1.16364 11.3836 1.16455 11.3855 1.13909 11.5936C1.27727 11.4964 1.41636 11.3982 1.55455 11.2991L1.74 11.1691C1.83818 11.1 1.74364 11.2827 1.72364 11.2991C1.55091 11.4409 1.37818 11.5827 1.20727 11.7255C1.08818 11.8227 1.13455 11.9436 1.13818 12.0982L1.49091 12.0527L1.88182 11.5436C2.01091 11.3736 2.06182 11.4491 1.94818 11.6164L1.63091 12.0836C1.79364 12.0645 1.82182 12.0818 1.90182 11.9409L2.06545 11.65C2.13545 11.5264 2.09636 11.52 2.23909 11.5918C2.35727 11.6491 2.48455 11.6136 2.44818 11.7582L2.36364 12.08C2.31273 12.28 2.31545 12.2809 2.44182 12.4455C2.47 12.2745 2.49909 12.1045 2.52909 11.9345L2.56727 11.7073C2.58818 11.5855 2.64909 11.7836 2.64545 11.8118L2.58 12.4873C2.56455 12.6436 2.68091 12.6945 2.79091 12.8L3.00636 12.5091C2.97909 12.2945 2.95182 12.0809 2.92636 11.8673C2.9 11.6527 2.98727 11.6673 3.02364 11.8673L3.12545 12.4291C3.22545 12.2955 3.25818 12.2873 3.21636 12.1291L3.12909 11.8073C3.09091 11.6691 3.06182 11.6936 3.21 11.6373C3.33364 11.5918 3.39364 11.4764 3.46727 11.6036L3.63091 11.8909C3.73364 12.07 3.73545 12.0682 3.93818 12.0909L3.64727 11.67L3.51636 11.4809C3.44636 11.38 3.62727 11.4745 3.64455 11.4964L4.06545 12.02C4.16182 12.1409 4.28 12.0909 4.43 12.0864L4.38 11.7227L3.88 11.3318C3.71 11.1991 3.78636 11.1482 3.94909 11.26C4.10182 11.3691 4.25545 11.4745 4.40818 11.5809C4.38727 11.4145 4.40455 11.3855 4.26545 11.3045C4.10727 11.2127 3.83273 11.1573 3.91727 10.9709C3.97182 10.8509 3.93636 10.7364 4.07364 10.7755L4.38636 10.8627C4.58091 10.9173 4.58091 10.9155 4.74091 10.7855L4.31182 10.7055L4.08364 10.6618C4.05364 10.6564 3.92545 10.5473 4.03636 10.5609C4.31818 10.5909 4.6 10.6236 4.88182 10.6545M6.96636 10.7727L7.25636 10.3636L6.96364 9.96L7.43 10.1173L7.71455 9.70636V10.21L8.18182 10.3609L7.71545 10.5155L7.71909 11.0209L7.43182 10.6118L6.96636 10.7727ZM1.17364 5.08636L0.723636 5.28909L0.402727 4.90909L0.451818 5.41091L0 5.60909L0.48 5.71636L0.523636 6.21818L0.770909 5.78273L1.24909 5.89455L0.922727 5.52L1.17364 5.08636Z" fill="#FCD116"/>
</svg>
